<svg width="33" height="41" viewBox="0 0 33 41" fill="none" xmlns="http://www.w3.org/2000/svg">
<path d="M16.5 7.375L17.4937 6.38125C17.2301 6.11791 16.8727 5.96999 16.5 5.96999C16.1273 5.96999 15.7699 6.11791 15.5063 6.38125L16.5 7.375ZM16.5 22.375L15.5063 23.3687C15.7699 23.6321 16.1273 23.78 16.5 23.78C16.8727 23.78 17.2301 23.6321 17.4937 23.3687L16.5 22.375ZM11.7563 10.1312C11.5079 10.3978 11.3726 10.7504 11.379 11.1147C11.3855 11.479 11.5331 11.8266 11.7907 12.0843C12.0484 12.3419 12.396 12.4895 12.7603 12.496C13.1246 12.5024 13.4772 12.3672 13.7437 12.1188L11.7563 10.1312ZM19.2563 12.1188C19.385 12.2569 19.5402 12.3677 19.7127 12.4446C19.8852 12.5214 20.0715 12.5628 20.2603 12.5661C20.4491 12.5694 20.6366 12.5347 20.8117 12.464C20.9868 12.3933 21.1459 12.288 21.2794 12.1544C21.413 12.0209 21.5183 11.8618 21.589 11.6867C21.6597 11.5116 21.6944 11.3241 21.6911 11.1353C21.6878 10.9465 21.6465 10.7602 21.5696 10.5877C21.4927 10.4152 21.3819 10.26 21.2437 10.1312L19.2563 12.1188ZM13.7437 17.6313C13.615 17.4931 13.4598 17.3823 13.2873 17.3054C13.1148 17.2285 12.9285 17.1872 12.7397 17.1839C12.5509 17.1806 12.3634 17.2153 12.1883 17.286C12.0132 17.3567 11.8541 17.462 11.7206 17.5956C11.587 17.7291 11.4817 17.8882 11.411 18.0633C11.3403 18.2384 11.3056 18.4259 11.3089 18.6147C11.3122 18.8035 11.3536 18.9898 11.4304 19.1623C11.5073 19.3348 11.6181 19.49 11.7563 19.6187L13.7437 17.6313ZM21.2437 19.6187C21.3819 19.49 21.4927 19.3348 21.5696 19.1623C21.6465 18.9898 21.6878 18.8035 21.6911 18.6147C21.6944 18.4259 21.6597 18.2384 21.589 18.0633C21.5183 17.8882 21.413 17.7291 21.2794 17.5956C21.1459 17.462 20.9868 17.3567 20.8117 17.286C20.6366 17.2153 20.4491 17.1806 20.2603 17.1839C20.0715 17.1872 19.8852 17.2285 19.7127 17.3054C19.5402 17.3823 19.385 17.4931 19.2563 17.6313L21.2437 19.6187ZM0.09375 16.75V24.25H2.90625V16.75H0.09375ZM32.9062 24.25V16.75H30.0938V24.25H32.9062ZM15.0938 7.375V22.375H17.9062V7.375H15.0938ZM15.5063 6.38125L11.7563 10.1312L13.7437 12.1188L17.4937 8.36875L15.5063 6.38125ZM15.5063 8.36875L19.2563 12.1188L21.2437 10.1312L17.4937 6.38125L15.5063 8.36875ZM17.4937 21.3813L13.7437 17.6313L11.7563 19.6187L15.5063 23.3687L17.4937 21.3813ZM17.4937 23.3687L21.2437 19.6187L19.2563 17.6313L15.5063 21.3813L17.4937 23.3687ZM32.9062 16.75C32.9062 12.3988 31.1777 8.2258 28.101 5.14903C25.0242 2.07226 20.8512 0.34375 16.5 0.34375V3.15625C20.1053 3.15625 23.5629 4.58845 26.1122 7.13777C28.6616 9.68709 30.0938 13.1447 30.0938 16.75H32.9062ZM16.5 40.6562C18.6545 40.6562 20.7879 40.2319 22.7784 39.4074C24.7689 38.5829 26.5775 37.3744 28.101 35.851C29.6244 34.3275 30.8329 32.5189 31.6574 30.5284C32.4819 28.5379 32.9062 26.4045 32.9062 24.25H30.0938C30.0938 27.8553 28.6616 31.3129 26.1122 33.8622C23.5629 36.4116 20.1053 37.8438 16.5 37.8438V40.6562ZM0.09375 24.25C0.09375 28.6012 1.82226 32.7742 4.89903 35.851C7.9758 38.9277 12.1488 40.6562 16.5 40.6562V37.8438C12.8947 37.8438 9.43709 36.4116 6.88777 33.8622C4.33845 31.3129 2.90625 27.8553 2.90625 24.25H0.09375ZM2.90625 16.75C2.90625 13.1447 4.33845 9.68709 6.88777 7.13777C9.43709 4.58845 12.8947 3.15625 16.5 3.15625V0.34375C12.1488 0.34375 7.9758 2.07226 4.89903 5.14903C1.82226 8.2258 0.09375 12.3988 0.09375 16.75H2.90625Z" fill="#C6F906"/>
</svg>
